<svg width="1100" height="520" viewBox="0 0 1100 520" fill="none" xmlns="http://www.w3.org/2000/svg">
<rect width="1100" height="520" fill="#050913"/>
<text x="60" y="64" fill="#EAF2FF" font-size="34" font-family="Arial, Noto Sans TC, sans-serif" font-weight="700">Hadog Radar 正式版 icon 方向</text>
<g transform="translate(60,100) scale(0.5)">
  <rect width="512" height="512" rx="120" fill="#0A1020"/>
  <rect x="48" y="48" width="416" height="416" rx="104" fill="#101A32"/>
  <path d="M156 184L202 110L230 196" fill="#BFE9FF"/>
  <path d="M356 184L310 110L282 196" fill="#BFE9FF"/>
  <path d="M156 216C156 154 201 126 256 126C311 126 356 154 356 216V270C356 334 311 386 256 386C201 386 156 334 156 270V216Z" fill="#EAF6FF"/>
  <path d="M194 214C194 180 220 160 256 160C292 160 318 180 318 214V252C318 306 287 344 256 344C225 344 194 306 194 252V214Z" fill="#1A2745"/>
  <path d="M214 280C228 294 242 301 256 301C270 301 284 294 298 280" stroke="#8DE1FF" stroke-width="14" stroke-linecap="round"/>
  <path d="M220 238H220.1" stroke="#8DE1FF" stroke-width="18" stroke-linecap="round"/>
  <path d="M292 238H292.1" stroke="#8DE1FF" stroke-width="18" stroke-linecap="round"/>
  <path d="M236 258L256 276L276 258" stroke="#EAF6FF" stroke-width="12" stroke-linecap="round" stroke-linejoin="round"/>
  <circle cx="348" cy="154" r="12" fill="#36D6FF"/>

</g>
<text x="60" y="410" fill="#EAF2FF" font-size="24" font-family="Arial, Noto Sans TC, sans-serif" font-weight="700">A. 極簡哈士奇頭</text>
<g transform="translate(390,100) scale(0.5)">
  <rect width="512" height="512" rx="120" fill="#0B1120"/>
  <rect x="56" y="56" width="400" height="400" rx="96" fill="#121D36"/>
  <path d="M176 146V366" stroke="#F4FAFF" stroke-width="34" stroke-linecap="round"/>
  <path d="M336 146V366" stroke="#F4FAFF" stroke-width="34" stroke-linecap="round"/>
  <path d="M176 256H336" stroke="#41D8FF" stroke-width="30" stroke-linecap="round"/>
  <rect x="136" y="228" width="240" height="56" rx="28" fill="#152B49"/>
  <circle cx="372" cy="140" r="14" fill="#41D8FF"/>
  <circle cx="396" cy="116" r="8" fill="#7CEBFF"/>

</g>
<text x="390" y="410" fill="#EAF2FF" font-size="24" font-family="Arial, Noto Sans TC, sans-serif" font-weight="700">B. 幾何 H logo</text>
<g transform="translate(720,100) scale(0.5)">
  <rect width="512" height="512" rx="120" fill="#09101E"/>
  <rect x="44" y="44" width="424" height="424" rx="108" fill="#111A31"/>
  <circle cx="352" cy="160" r="54" stroke="#2CE5FF" stroke-width="10"/>
  <circle cx="352" cy="160" r="26" stroke="#2CE5FF" stroke-width="8"/>
  <circle cx="352" cy="160" r="8" fill="#2CE5FF"/>
  <path d="M146 194L198 118L228 204" fill="#DCEFFF"/>
  <path d="M326 204L356 118L408 194" fill="#DCEFFF"/>
  <path d="M146 222C146 158 195 128 256 128C317 128 366 158 366 222V274C366 340 317 392 256 392C195 392 146 340 146 274V222Z" fill="#ECF7FF"/>
  <path d="M194 222C194 185 221 164 256 164C291 164 318 185 318 222V260C318 314 286 350 256 350C226 350 194 314 194 260V222Z" fill="#182440"/>
  <path d="M218 240H218.1" stroke="#182440" stroke-width="18" stroke-linecap="round"/>
  <path d="M294 240H294.1" stroke="#182440" stroke-width="18" stroke-linecap="round"/>
  <path d="M238 264L256 280L274 264" stroke="#ECF7FF" stroke-width="12" stroke-linecap="round" stroke-linejoin="round"/>
  <path d="M218 300C230 313 243 320 256 320C269 320 282 313 294 300" stroke="#2CE5FF" stroke-width="14" stroke-linecap="round"/>

</g>
<text x="720" y="410" fill="#EAF2FF" font-size="24" font-family="Arial, Noto Sans TC, sans-serif" font-weight="700">C. 哈士奇 + radar 點</text>
</svg>